<mxfile host="app.diagrams.net" modified="2020-10-13T11:21:38.989Z" agent="5.0 (X11; Linux x86_64) AppleWebKit/537.36 (KHTML, like Gecko) Chrome/84.0.4147.135 Safari/537.36" etag="Eih-BIoJqPFd4LgAZbF3" version="13.7.9" type="github">
  <diagram id="L8QtokBy4twJuRu05DtB" name="Page-1">
    <mxGraphModel dx="769" dy="674" grid="1" gridSize="10" guides="1" tooltips="1" connect="1" arrows="1" fold="1" page="1" pageScale="1" pageWidth="1169" pageHeight="1654" math="0" shadow="0">
      <root>
        <mxCell id="0" />
        <mxCell id="1" parent="0" />
        <mxCell id="8nin3ADlOJw-6rtWGwkk-41" style="edgeStyle=none;rounded=0;orthogonalLoop=1;jettySize=auto;html=1;exitX=0;exitY=1;exitDx=0;exitDy=0;entryX=1;entryY=0;entryDx=0;entryDy=0;" edge="1" parent="1" source="8nin3ADlOJw-6rtWGwkk-2" target="8nin3ADlOJw-6rtWGwkk-3">
          <mxGeometry relative="1" as="geometry" />
        </mxCell>
        <mxCell id="8nin3ADlOJw-6rtWGwkk-44" style="edgeStyle=none;rounded=0;orthogonalLoop=1;jettySize=auto;html=1;exitX=1;exitY=1;exitDx=0;exitDy=0;entryX=0;entryY=0;entryDx=0;entryDy=0;" edge="1" parent="1" source="8nin3ADlOJw-6rtWGwkk-2" target="8nin3ADlOJw-6rtWGwkk-8">
          <mxGeometry relative="1" as="geometry" />
        </mxCell>
        <mxCell id="8nin3ADlOJw-6rtWGwkk-2" value="&lt;font style=&quot;font-size: 20px&quot;&gt;5&lt;/font&gt;" style="ellipse;whiteSpace=wrap;html=1;" vertex="1" parent="1">
          <mxGeometry x="230" y="480" width="80" height="80" as="geometry" />
        </mxCell>
        <mxCell id="8nin3ADlOJw-6rtWGwkk-36" style="edgeStyle=none;rounded=0;orthogonalLoop=1;jettySize=auto;html=1;exitX=0;exitY=1;exitDx=0;exitDy=0;entryX=1;entryY=0;entryDx=0;entryDy=0;" edge="1" parent="1" source="8nin3ADlOJw-6rtWGwkk-3" target="8nin3ADlOJw-6rtWGwkk-4">
          <mxGeometry relative="1" as="geometry" />
        </mxCell>
        <mxCell id="8nin3ADlOJw-6rtWGwkk-3" value="&lt;font style=&quot;font-size: 20px&quot;&gt;4&lt;/font&gt;" style="ellipse;whiteSpace=wrap;html=1;" vertex="1" parent="1">
          <mxGeometry x="130" y="560" width="80" height="80" as="geometry" />
        </mxCell>
        <mxCell id="8nin3ADlOJw-6rtWGwkk-4" value="&lt;span style=&quot;font-size: 20px&quot;&gt;3&lt;/span&gt;" style="ellipse;whiteSpace=wrap;html=1;" vertex="1" parent="1">
          <mxGeometry x="40" y="650" width="80" height="80" as="geometry" />
        </mxCell>
        <mxCell id="8nin3ADlOJw-6rtWGwkk-5" value="&lt;font style=&quot;font-size: 20px&quot;&gt;8&lt;br&gt;&lt;/font&gt;" style="ellipse;whiteSpace=wrap;html=1;" vertex="1" parent="1">
          <mxGeometry x="440" y="670" width="80" height="80" as="geometry" />
        </mxCell>
        <mxCell id="8nin3ADlOJw-6rtWGwkk-43" style="edgeStyle=none;rounded=0;orthogonalLoop=1;jettySize=auto;html=1;exitX=1;exitY=1;exitDx=0;exitDy=0;entryX=0;entryY=0;entryDx=0;entryDy=0;" edge="1" parent="1" source="8nin3ADlOJw-6rtWGwkk-8" target="8nin3ADlOJw-6rtWGwkk-5">
          <mxGeometry relative="1" as="geometry" />
        </mxCell>
        <mxCell id="8nin3ADlOJw-6rtWGwkk-8" value="&lt;font style=&quot;font-size: 20px&quot;&gt;7&lt;/font&gt;" style="ellipse;whiteSpace=wrap;html=1;" vertex="1" parent="1">
          <mxGeometry x="330" y="560" width="80" height="80" as="geometry" />
        </mxCell>
        <mxCell id="8nin3ADlOJw-6rtWGwkk-13" value="&lt;font style=&quot;font-size: 18px&quot;&gt;searchSplay(t, 8)&lt;/font&gt;" style="text;html=1;strokeColor=none;fillColor=#33FF33;align=center;verticalAlign=middle;whiteSpace=wrap;rounded=0;" vertex="1" parent="1">
          <mxGeometry x="420" y="180" width="150" height="20" as="geometry" />
        </mxCell>
        <mxCell id="8nin3ADlOJw-6rtWGwkk-17" value="&lt;font style=&quot;font-size: 18px&quot;&gt;searchSplay(t, 7)&lt;/font&gt;" style="text;html=1;strokeColor=none;fillColor=#66FF66;align=center;verticalAlign=middle;whiteSpace=wrap;rounded=0;" vertex="1" parent="1">
          <mxGeometry x="420" y="140" width="150" height="20" as="geometry" />
        </mxCell>
        <mxCell id="8nin3ADlOJw-6rtWGwkk-18" value="&lt;font style=&quot;font-size: 18px&quot;&gt;searchSplay(t, 6)&lt;/font&gt;" style="text;html=1;strokeColor=none;fillColor=#33FF33;align=center;verticalAlign=middle;whiteSpace=wrap;rounded=0;" vertex="1" parent="1">
          <mxGeometry x="420" y="240" width="150" height="20" as="geometry" />
        </mxCell>
        <mxCell id="8nin3ADlOJw-6rtWGwkk-19" style="edgeStyle=none;rounded=0;orthogonalLoop=1;jettySize=auto;html=1;exitX=0;exitY=1;exitDx=0;exitDy=0;" edge="1" parent="1" source="8nin3ADlOJw-6rtWGwkk-2" target="8nin3ADlOJw-6rtWGwkk-2">
          <mxGeometry relative="1" as="geometry" />
        </mxCell>
      </root>
    </mxGraphModel>
  </diagram>
</mxfile>
